<svg width="31" height="13" viewBox="0 0 31 13" fill="none" xmlns="http://www.w3.org/2000/svg">
<path d="M1.06126 6.84188L6.87271 1.03042H30.5039V12.6533H6.87271L1.06126 6.84188Z" fill="#D8EFFD" stroke="black" stroke-width="0.298023"/>
<path d="M15.4286 3.54163L17.2167 6.42704H17.2709L19.059 3.54163H20.0479L17.867 7.00954L20.0479 10.4774H19.059L17.2709 7.64623H17.2167L15.4286 10.4774H14.4397L16.6749 7.00954L14.4397 3.54163H15.4286Z" fill="#D8EFFD"/>
<path d="M15.4286 3.54163L15.6819 3.38464L15.5945 3.24361H15.4286V3.54163ZM17.2167 6.42704L16.9634 6.58403L17.0508 6.72506H17.2167V6.42704ZM17.2709 6.42704V6.72506H17.4368L17.5242 6.58403L17.2709 6.42704ZM19.059 3.54163V3.24361H18.8931L18.8057 3.38464L19.059 3.54163ZM20.0479 3.54163L20.3002 3.70029L20.5874 3.24361H20.0479V3.54163ZM17.867 7.00954L17.6147 6.85088L17.5149 7.00954L17.6147 7.1682L17.867 7.00954ZM20.0479 10.4774V10.7755H20.5874L20.3002 10.3188L20.0479 10.4774ZM19.059 10.4774L18.8071 10.6366L18.8948 10.7755H19.059V10.4774ZM17.2709 7.64623L17.5229 7.48708L17.4352 7.3482H17.2709V7.64623ZM17.2167 7.64623V7.3482H17.0525L16.9647 7.48708L17.2167 7.64623ZM15.4286 10.4774V10.7755H15.5928L15.6806 10.6366L15.4286 10.4774ZM14.4397 10.4774L14.1892 10.316L13.893 10.7755H14.4397V10.4774ZM16.6749 7.00954L16.9254 7.17099L17.0294 7.00954L16.9254 6.84808L16.6749 7.00954ZM14.4397 3.54163V3.24361H13.893L14.1892 3.70308L14.4397 3.54163ZM15.1753 3.69862L16.9634 6.58403L17.47 6.27005L15.6819 3.38464L15.1753 3.69862ZM17.2167 6.72506H17.2709V6.12901H17.2167V6.72506ZM17.5242 6.58403L19.3124 3.69862L18.8057 3.38464L17.0176 6.27005L17.5242 6.58403ZM19.059 3.83965H20.0479V3.24361H19.059V3.83965ZM19.7957 3.38297L17.6147 6.85088L18.1192 7.1682L20.3002 3.70029L19.7957 3.38297ZM17.6147 7.1682L19.7957 10.6361L20.3002 10.3188L18.1192 6.85088L17.6147 7.1682ZM20.0479 10.1794H19.059V10.7755H20.0479V10.1794ZM19.311 10.3183L17.5229 7.48708L17.0189 7.80537L18.8071 10.6366L19.311 10.3183ZM17.2709 7.3482H17.2167V7.94425H17.2709V7.3482ZM16.9647 7.48708L15.1766 10.3183L15.6806 10.6366L17.4687 7.80537L16.9647 7.48708ZM15.4286 10.1794H14.4397V10.7755H15.4286V10.1794ZM14.6902 10.6389L16.9254 7.17099L16.4244 6.84808L14.1892 10.316L14.6902 10.6389ZM16.9254 6.84808L14.6902 3.38017L14.1892 3.70308L16.4244 7.17099L16.9254 6.84808ZM14.4397 3.83965H15.4286V3.24361H14.4397V3.83965Z" fill="black"/>
</svg>
